<svg xmlns="http://www.w3.org/2000/svg" viewBox="0 0 301 300"><defs><style>.cls-1{fill:#ffb800;}.cls-2{fill:#fff;}.cls-3{fill:none;}</style></defs><g id="Layer_2" data-name="Layer 2"><g id="complete"><g id="_02d" data-name="02d"><circle class="cls-1" cx="78.5" cy="101.5" r="71.5"/><path class="cls-2" d="M255.45,137.73C245.35,116.69,222.54,102,196,102a69.89,69.89,0,0,0-22.26,3.61A67.87,67.87,0,0,0,130,90c-30.31,0-55.77,19.15-63,45.05-.68,0-1.36-.05-2-.05-35.9,0-65,26.86-65,60s29.1,60,65,60a68.59,68.59,0,0,0,34.75-9.31C111.6,260.44,130.59,270,152,270c20.85,0,39.39-9.07,51.29-23.16A68.82,68.82,0,0,0,236,255c35.9,0,65-26.86,65-60C301,168.12,281.84,145.36,255.45,137.73Z"/><rect class="cls-3" x="0.5" width="300" height="300"/></g></g></g></svg>