<svg xmlns="http://www.w3.org/2000/svg" viewBox="0 0 300 300"><defs><style>.cls-1{fill:#ffb800;}.cls-2{fill:#fff;}.cls-3{fill:none;}</style></defs><g id="Layer_2" data-name="Layer 2"><g id="complete"><g id="_02n" data-name="02n"><path class="cls-1" d="M82.72,93.69a71.21,71.21,0,0,1,32.52-59.8,71.26,71.26,0,1,0,16.7,127.57A71.29,71.29,0,0,1,82.72,93.69Z"/><path class="cls-2" d="M254.6,137.77c-10.07-21-32.8-35.61-59.25-35.61a69.45,69.45,0,0,0-22.19,3.6A67.61,67.61,0,0,0,129.57,90.2c-30.21,0-55.58,19.08-62.76,44.9-.67,0-1.35,0-2,0C29,135.05,0,161.82,0,194.85s29,59.8,64.78,59.8a68.39,68.39,0,0,0,34.64-9.28c11.81,14.7,30.73,24.23,52.08,24.23,20.77,0,39.26-9,51.11-23.08a68.63,68.63,0,0,0,32.61,8.13c35.78,0,64.78-26.77,64.78-59.8C300,168.06,280.91,145.38,254.6,137.77Z"/><rect class="cls-3" width="300" height="300"/></g></g></g></svg>