<svg xmlns="http://www.w3.org/2000/svg" viewBox="0 0 300 300"><defs><style>.cls-1{fill:#fff;}.cls-2{fill:none;}</style></defs><g id="Layer_2" data-name="Layer 2"><g id="complete"><g id="_03d" data-name="03d"><path class="cls-1" d="M254.6,107.73C244.53,86.69,221.8,72,195.35,72a69.46,69.46,0,0,0-22.19,3.61A67.48,67.48,0,0,0,129.57,60C99.36,60,74,79.15,66.81,105.05c-.67,0-1.35,0-2,0C29,105,0,131.86,0,165s29,60,64.78,60a68.21,68.21,0,0,0,34.64-9.31C111.23,230.44,130.15,240,151.5,240c20.77,0,39.26-9.07,51.11-23.16A68.42,68.42,0,0,0,235.22,225C271,225,300,198.14,300,165,300,138.12,280.91,115.36,254.6,107.73Z"/><rect class="cls-2" x="0.5" width="299" height="300"/></g></g></g></svg>