<svg xmlns="http://www.w3.org/2000/svg" viewBox="0 0 300 300"><defs><style>.cls-1{fill:gray;}.cls-2{fill:#fff;}.cls-3{fill:none;}</style></defs><g id="Layer_2" data-name="Layer 2"><g id="complete"><g id="_04d" data-name="04d"><path class="cls-1" d="M260.79,103.16c-8-16.6-26-28.19-46.9-28.19a54.82,54.82,0,0,0-17.56,2.85,53.55,53.55,0,0,0-34.5-12.32c-23.91,0-44,15.1-49.67,35.54-.54,0-1.07,0-1.61,0-28.32,0-51.28,21.19-51.28,47.33s23,47.34,51.28,47.34A54.11,54.11,0,0,0,138,188.32c9.34,11.64,24.32,19.18,41.21,19.18a52.8,52.8,0,0,0,40.46-18.27,54.39,54.39,0,0,0,25.81,6.44c28.32,0,51.28-21.2,51.28-47.34C296.73,127.12,281.62,109.18,260.79,103.16Z"/><path class="cls-2" d="M204.79,130.16c-8-16.6-26-28.19-46.9-28.19a54.82,54.82,0,0,0-17.56,2.85,53.55,53.55,0,0,0-34.5-12.32c-23.91,0-44,15.1-49.67,35.54-.54,0-1.07,0-1.61,0-28.32,0-51.28,21.19-51.28,47.33s23,47.34,51.28,47.34A54.11,54.11,0,0,0,82,215.32c9.34,11.64,24.32,19.18,41.21,19.18a52.8,52.8,0,0,0,40.46-18.27,54.39,54.39,0,0,0,25.81,6.44c28.32,0,51.28-21.2,51.28-47.34C240.73,154.12,225.62,136.18,204.79,130.16Z"/><rect class="cls-3" width="300" height="300"/></g></g></g></svg>