<svg xmlns="http://www.w3.org/2000/svg" viewBox="0 0 300 300"><defs><style>.cls-1{fill:gray;}.cls-2{fill:#fff;}.cls-3{fill:#22b2da;}.cls-4{fill:none;}</style></defs><g id="Layer_2" data-name="Layer 2"><g id="complete"><g id="_09d" data-name="09d"><path class="cls-1" d="M260.79,37.16c-8-16.38-26-27.82-46.9-27.82a55.65,55.65,0,0,0-17.56,2.82A53.93,53.93,0,0,0,161.83,0c-23.91,0-44,14.9-49.67,35.07-.54,0-1.07,0-1.61,0C82.23,35,59.27,56,59.27,81.74s23,46.71,51.28,46.71A54.74,54.74,0,0,0,138,121.21c9.34,11.48,24.32,18.92,41.21,18.92,16.45,0,31.08-7.06,40.46-18a54.92,54.92,0,0,0,25.81,6.35c28.32,0,51.28-20.91,51.28-46.71C296.73,60.81,281.62,43.1,260.79,37.16Z"/><path class="cls-2" d="M204.79,63.81c-8-16.39-26-27.82-46.9-27.82a55.65,55.65,0,0,0-17.56,2.81,54,54,0,0,0-34.5-12.16c-23.91,0-44,14.91-49.67,35.07-.54,0-1.07,0-1.61,0-28.32,0-51.28,20.91-51.28,46.71s23,46.71,51.28,46.71A54.75,54.75,0,0,0,82,147.85c9.34,11.48,24.32,18.93,41.21,18.93,16.45,0,31.08-7.07,40.46-18a54.92,54.92,0,0,0,25.81,6.35c28.32,0,51.28-20.91,51.28-46.71C240.73,87.46,225.62,69.75,204.79,63.81Z"/><path class="cls-3" d="M91.27,202.18c0,11-6,19.86-13.5,19.86s-13.5-8.89-13.5-19.86,11-32.44,14.27-32.44S91.27,191.21,91.27,202.18Z"/><path class="cls-3" d="M139.27,228.82c0,11-6,19.86-13.5,19.86s-13.5-8.89-13.5-19.86,11-32.44,14.27-32.44S139.27,217.85,139.27,228.82Z"/><path class="cls-3" d="M206.27,202.18c0,11-6,19.86-13.5,19.86s-13.5-8.89-13.5-19.86,11-32.44,14.27-32.44S206.27,191.21,206.27,202.18Z"/><path class="cls-3" d="M252.27,237.7c0,11-6,19.87-13.5,19.87s-13.5-8.9-13.5-19.87,11-32.44,14.27-32.44S252.27,226.73,252.27,237.7Z"/><path class="cls-3" d="M184.27,280.14c0,11-6,19.86-13.5,19.86s-13.5-8.89-13.5-19.86,11-32.44,14.27-32.44S184.27,269.17,184.27,280.14Z"/><rect class="cls-4" y="1.97" width="300" height="296.05"/></g></g></g></svg>