<svg xmlns="http://www.w3.org/2000/svg" viewBox="0 0 301 370"><defs><style>.cls-1{fill:#ffb800;}.cls-2{fill:#fff;}.cls-3{fill:#22b2da;}</style></defs><g id="Layer_2" data-name="Layer 2"><g id="Layer_1-2" data-name="Layer 1"><circle class="cls-1" cx="78.5" cy="71.5" r="71.5"/><path class="cls-2" d="M255.45,107.73C245.35,86.69,222.54,72,196,72a69.89,69.89,0,0,0-22.26,3.61A67.87,67.87,0,0,0,130,60c-30.31,0-55.77,19.15-63,45.05-.68,0-1.36,0-2,0-35.9,0-65,26.86-65,60s29.1,60,65,60a68.59,68.59,0,0,0,34.75-9.31C111.6,230.44,130.59,240,152,240c20.85,0,39.39-9.07,51.29-23.16A68.82,68.82,0,0,0,236,225c35.9,0,65-26.86,65-60C301,138.12,281.84,115.36,255.45,107.73Z"/><path class="cls-3" d="M95,270.87C95,282,89,291,81.5,291S68,282,68,270.87,79,238,82.26,238,95,259.76,95,270.87Z"/><path class="cls-3" d="M143,297.87C143,309,137,318,129.5,318S116,309,116,297.87,127,265,130.26,265,143,286.76,143,297.87Z"/><path class="cls-3" d="M210,270.87C210,282,204,291,196.5,291S183,282,183,270.87,194,238,197.26,238,210,259.76,210,270.87Z"/><path class="cls-3" d="M256,306.87C256,318,250,327,242.5,327S229,318,229,306.87,240,274,243.26,274,256,295.76,256,306.87Z"/><path class="cls-3" d="M188,349.87C188,361,182,370,174.5,370S161,361,161,349.87,172,317,175.26,317,188,338.76,188,349.87Z"/></g></g></svg>