<svg xmlns="http://www.w3.org/2000/svg" viewBox="0 0 300 300"><defs><style>.cls-1{fill:none;}.cls-2{fill:#ffb800;}.cls-3{fill:#fff;}.cls-4{fill:#22b2da;}</style></defs><g id="Layer_2" data-name="Layer 2"><g id="complete"><g id="_10d" data-name="10d"><rect class="cls-1" width="300" height="300"/><circle class="cls-2" cx="93.64" cy="61.16" r="55.97"/><path class="cls-3" d="M232.15,89.52c-7.91-16.47-25.76-28-46.53-28a54.52,54.52,0,0,0-17.43,2.83A53.09,53.09,0,0,0,134,52.15c-23.72,0-43.65,15-49.28,35.27-.53,0-1.06,0-1.6,0-28.1,0-50.88,21-50.88,47s22.78,47,50.88,47A53.83,53.83,0,0,0,110.28,174c9.27,11.54,24.13,19,40.89,19a52.38,52.38,0,0,0,40.15-18.13,53.82,53.82,0,0,0,25.61,6.39c28.1,0,50.88-21,50.88-47C267.81,113.3,252.81,95.49,232.15,89.52Z"/><path class="cls-4" d="M106.56,217.22c0,8.7-4.73,15.75-10.57,15.75s-10.57-7.05-10.57-15.75S94,191.49,96.59,191.49,106.56,208.52,106.56,217.22Z"/><path class="cls-4" d="M144.13,238.35c0,8.7-4.73,15.76-10.57,15.76S123,247.05,123,238.35s8.58-25.73,11.17-25.73S144.13,229.65,144.13,238.35Z"/><path class="cls-4" d="M196.57,217.22c0,8.7-4.73,15.75-10.56,15.75s-10.57-7.05-10.57-15.75,8.57-25.73,11.17-25.73S196.57,208.52,196.57,217.22Z"/><path class="cls-4" d="M232.58,245.4c0,8.7-4.73,15.75-10.57,15.75s-10.56-7-10.56-15.75,8.57-25.73,11.16-25.73S232.58,236.7,232.58,245.4Z"/><path class="cls-4" d="M179.35,279.06c0,8.7-4.73,15.75-10.56,15.75s-10.57-7.05-10.57-15.75,8.57-25.73,11.16-25.73S179.35,270.36,179.35,279.06Z"/></g></g></g></svg>