<svg xmlns="http://www.w3.org/2000/svg" viewBox="0 0 301 369"><defs><style>.cls-1{fill:#ffb800;}.cls-2{fill:#fff;}.cls-3{fill:#22b2da;}</style></defs><g id="Layer_2" data-name="Layer 2"><g id="Layer_1-2" data-name="Layer 1"><path class="cls-1" d="M83,63.5a71.4,71.4,0,0,1,32.62-60,71.5,71.5,0,1,0,16.76,128A71.51,71.51,0,0,1,83,63.5Z"/><path class="cls-2" d="M255.45,107.73C245.35,86.69,222.54,72,196,72a69.89,69.89,0,0,0-22.26,3.61A67.87,67.87,0,0,0,130,60c-30.31,0-55.77,19.15-63,45.05-.68,0-1.36,0-2,0-35.9,0-65,26.86-65,60s29.1,60,65,60a68.59,68.59,0,0,0,34.75-9.31C111.6,230.44,130.59,240,152,240c20.85,0,39.39-9.07,51.29-23.16A68.82,68.82,0,0,0,236,225c35.9,0,65-26.86,65-60C301,138.12,281.84,115.36,255.45,107.73Z"/><path class="cls-3" d="M91,269.87C91,281,85,290,77.5,290S64,281,64,269.87,75,237,78.26,237,91,258.76,91,269.87Z"/><path class="cls-3" d="M139,296.87C139,308,133,317,125.5,317S112,308,112,296.87,123,264,126.26,264,139,285.76,139,296.87Z"/><path class="cls-3" d="M206,269.87C206,281,200,290,192.5,290S179,281,179,269.87,190,237,193.26,237,206,258.76,206,269.87Z"/><path class="cls-3" d="M252,305.87C252,317,246,326,238.5,326S225,317,225,305.87,236,273,239.26,273,252,294.76,252,305.87Z"/><path class="cls-3" d="M184,348.87C184,360,178,369,170.5,369S157,360,157,348.87,168,316,171.26,316,184,337.76,184,348.87Z"/></g></g></svg>