<svg xmlns="http://www.w3.org/2000/svg" viewBox="0 0 300 300"><defs><style>.cls-1{fill:#ffb800;}.cls-2{fill:#fff;}.cls-3{fill:#22b2da;}.cls-4{fill:none;}</style></defs><g id="Layer_2" data-name="Layer 2"><g id="complete"><g id="_10n" data-name="10n"><path class="cls-1" d="M95.12,51.63A58.07,58.07,0,0,1,121.65,2.85a58.13,58.13,0,1,0,13.62,104.06A58.16,58.16,0,0,1,95.12,51.63Z"/><path class="cls-2" d="M235.32,87.59C227.11,70.48,208.57,58.54,187,58.54a56.43,56.43,0,0,0-18.1,2.94,55.15,55.15,0,0,0-35.56-12.7C108.69,48.78,88,64.35,82.14,85.4c-.55,0-1.1,0-1.65,0-29.19,0-52.85,21.84-52.85,48.78s23.66,48.78,52.85,48.78a55.86,55.86,0,0,0,28.25-7.57c9.63,12,25.07,19.76,42.48,19.76a54.39,54.39,0,0,0,41.7-18.83,55.94,55.94,0,0,0,26.59,6.64c29.19,0,52.85-21.84,52.85-48.78C272.36,112.29,256.78,93.79,235.32,87.59Z"/><path class="cls-3" d="M101.63,219.41c0,9-4.92,16.36-11,16.36s-11-7.32-11-16.36,8.91-26.73,11.6-26.73S101.63,210.37,101.63,219.41Z"/><path class="cls-3" d="M140.65,241.36c0,9-4.91,16.36-11,16.36s-11-7.32-11-16.36,8.9-26.73,11.6-26.73S140.65,232.32,140.65,241.36Z"/><path class="cls-3" d="M195.12,219.41c0,9-4.91,16.36-11,16.36s-11-7.32-11-16.36,8.91-26.73,11.6-26.73S195.12,210.37,195.12,219.41Z"/><path class="cls-3" d="M232.52,248.68c0,9-4.91,16.36-11,16.36s-11-7.33-11-16.36,8.9-26.73,11.6-26.73S232.52,239.64,232.52,248.68Z"/><path class="cls-3" d="M177.24,283.64c0,9-4.92,16.36-11,16.36s-11-7.33-11-16.36,8.91-26.73,11.6-26.73S177.24,274.6,177.24,283.64Z"/><rect class="cls-4" width="300" height="300"/></g></g></g></svg>