<svg xmlns="http://www.w3.org/2000/svg" viewBox="0 0 293.46 292"><defs><style>.cls-1{fill:gray;}.cls-2{fill:#fff;}.cls-3{fill:#ffb800;}</style></defs><g id="Layer_2" data-name="Layer 2"><g id="Layer_1-2" data-name="Layer 1"><path class="cls-1" d="M257.52,37.66c-8-16.6-26-28.19-46.9-28.19a54.82,54.82,0,0,0-17.56,2.85A53.55,53.55,0,0,0,158.56,0c-23.91,0-44,15.1-49.68,35.54-.53,0-1.06,0-1.6,0C79,35.5,56,56.69,56,82.83s23,47.34,51.28,47.34a54.1,54.1,0,0,0,27.41-7.35C144,134.46,159,142,175.91,142a52.8,52.8,0,0,0,40.46-18.27,54.39,54.39,0,0,0,25.81,6.44c28.32,0,51.28-21.2,51.28-47.34C293.46,61.62,278.34,43.68,257.52,37.66Z"/><path class="cls-2" d="M201.52,64.66c-8-16.6-26-28.19-46.9-28.19a54.82,54.82,0,0,0-17.56,2.85A53.55,53.55,0,0,0,102.56,27c-23.91,0-44,15.1-49.68,35.54-.53,0-1.06,0-1.6,0C23,62.5,0,83.69,0,109.83s23,47.34,51.28,47.34a54.1,54.1,0,0,0,27.41-7.35C88,161.46,103,169,119.91,169a52.8,52.8,0,0,0,40.46-18.27,54.39,54.39,0,0,0,25.81,6.44c28.32,0,51.28-21.2,51.28-47.34C237.46,88.62,222.34,70.68,201.52,64.66Z"/><path class="cls-3" d="M81,122h81s-45.82,60.71-44.61,59.5S162,183.88,162,183.88L86.86,292l24.82-85H75.45l32.24-54.64L75.45,153Z"/></g></g></svg>