<svg xmlns="http://www.w3.org/2000/svg" viewBox="0 0 300 300"><defs><style>.cls-1{fill:gray;}.cls-2{fill:#fff;}.cls-3{fill:#ffb800;}.cls-4{fill:none;}</style></defs><g id="Layer_2" data-name="Layer 2"><g id="complete"><g id="_11d" data-name="11d"><path class="cls-1" d="M260.79,41.66c-8-16.6-26-28.19-46.9-28.19a54.82,54.82,0,0,0-17.56,2.85A53.55,53.55,0,0,0,161.83,4c-23.91,0-44,15.1-49.67,35.54-.54,0-1.07,0-1.61,0-28.32,0-51.28,21.19-51.28,47.33s23,47.34,51.28,47.34A54.11,54.11,0,0,0,138,126.82c9.34,11.64,24.32,19.18,41.21,19.18a52.8,52.8,0,0,0,40.46-18.27,54.39,54.39,0,0,0,25.81,6.44c28.32,0,51.28-21.2,51.28-47.34C296.73,65.62,281.62,47.68,260.79,41.66Z"/><path class="cls-2" d="M204.79,68.66c-8-16.6-26-28.19-46.9-28.19a54.82,54.82,0,0,0-17.56,2.85A53.55,53.55,0,0,0,105.83,31c-23.91,0-44,15.1-49.67,35.54-.54,0-1.07,0-1.61,0-28.32,0-51.28,21.19-51.28,47.33s23,47.34,51.28,47.34A54.11,54.11,0,0,0,82,153.82C91.31,165.46,106.29,173,123.18,173a52.8,52.8,0,0,0,40.46-18.27,54.39,54.39,0,0,0,25.81,6.44c28.32,0,51.28-21.2,51.28-47.34C240.73,92.62,225.62,74.68,204.79,68.66Z"/><path class="cls-3" d="M84.25,126h81s-45.82,60.71-44.6,59.5,44.6,2.38,44.6,2.38L90.13,296,115,211H78.72L111,156.36,78.72,157Z"/><rect class="cls-4" width="300" height="300"/></g></g></g></svg>