<svg xmlns="http://www.w3.org/2000/svg" viewBox="0 0 300 300"><defs><style>.cls-1{fill:#fff;}.cls-2{fill:none;}</style></defs><g id="Layer_2" data-name="Layer 2"><g id="complete"><g id="_13d" data-name="13d"><path class="cls-1" d="M254.6,47c-10.07-20.7-32.8-35.15-59.25-35.15a70.28,70.28,0,0,0-22.19,3.56A68.18,68.18,0,0,0,129.57,0C99.36,0,74,18.83,66.81,44.31c-.67,0-1.35-.05-2-.05C29,44.26,0,70.68,0,103.28s29,59,64.78,59a69.12,69.12,0,0,0,34.64-9.16c11.81,14.5,30.73,23.91,52.08,23.91,20.77,0,39.26-8.92,51.11-22.78a69.39,69.39,0,0,0,32.61,8c35.78,0,64.78-26.43,64.78-59C300,76.84,280.91,54.46,254.6,47Z"/><ellipse class="cls-1" cx="75.25" cy="205.08" rx="23.42" ry="23.11"/><ellipse class="cls-1" cx="150" cy="212.95" rx="14.45" ry="14.26"/><ellipse class="cls-1" cx="127.08" cy="283.77" rx="16.45" ry="16.23"/><ellipse class="cls-1" cx="260.63" cy="205.08" rx="19.44" ry="19.18"/><ellipse class="cls-1" cx="205.32" cy="261.64" rx="21.93" ry="21.64"/><rect class="cls-2" x="0.5" y="2.46" width="299" height="295.08"/></g></g></g></svg>