<svg xmlns="http://www.w3.org/2000/svg" viewBox="0 0 301 305"><defs><style>.cls-1{fill:#fff;}</style></defs><g id="Layer_2" data-name="Layer 2"><g id="Layer_1-2" data-name="Layer 1"><path class="cls-1" d="M255.45,47.73C245.35,26.69,222.54,12,196,12a69.89,69.89,0,0,0-22.26,3.61A67.87,67.87,0,0,0,130,0C99.69,0,74.23,19.15,67,45.05c-.68,0-1.36,0-2,0C29.1,45,0,71.86,0,105s29.1,60,65,60a68.59,68.59,0,0,0,34.75-9.31C111.6,170.44,130.59,180,152,180c20.85,0,39.39-9.07,51.29-23.16A68.82,68.82,0,0,0,236,165c35.9,0,65-26.86,65-60C301,78.12,281.84,55.36,255.45,47.73Z"/><circle class="cls-1" cx="75.5" cy="208.5" r="23.5"/><circle class="cls-1" cx="150.5" cy="216.5" r="14.5"/><circle class="cls-1" cx="127.5" cy="288.5" r="16.5"/><circle class="cls-1" cx="261.5" cy="208.5" r="19.5"/><circle class="cls-1" cx="206" cy="266" r="22"/></g></g></svg>