<svg xmlns="http://www.w3.org/2000/svg" viewBox="0 0 300 300"><defs><style>.cls-1{fill:#fff;}.cls-2{fill:none;}</style></defs><g id="Layer_2" data-name="Layer 2"><g id="complete"><g id="_50d" data-name="50d"><path class="cls-1" d="M247.62,58.59C238.23,39,217,25.35,192.33,25.35a65.06,65.06,0,0,0-20.72,3.36,63.12,63.12,0,0,0-40.68-14.52c-28.19,0-51.88,17.81-58.57,41.9-.63,0-1.26,0-1.89,0C37.07,56.05,10,81,10,111.86s27.07,55.81,60.47,55.81A63.89,63.89,0,0,0,102.79,159c11,13.71,28.69,22.61,48.61,22.61,19.39,0,36.64-8.44,47.7-21.55a64,64,0,0,0,30.43,7.59c33.4,0,60.47-25,60.47-55.81C290,86.85,272.18,65.69,247.62,58.59Z"/><rect class="cls-1" x="32.33" y="203.02" width="96.74" height="15.81" rx="7.91"/><rect class="cls-1" x="150.47" y="191.86" width="120.93" height="13.02" rx="6.51"/><rect class="cls-1" x="90.93" y="229.07" width="148.84" height="13.02" rx="6.51"/><rect class="cls-1" x="48.14" y="252.33" width="111.63" height="14.88" rx="7.44"/><rect class="cls-1" x="159.77" y="274.65" width="116.28" height="11.16" rx="5.58"/><rect class="cls-2" width="300" height="300"/></g></g></g></svg>